# MagicaVoxel @ Ephtracy

# group
o 

# material
mtllib glider.mtl
usemtl palette

# normals
vn -1 0 0
vn 1 0 0
vn 0 0 1
vn 0 0 -1
vn 0 -1 0
vn 0 1 0

# texcoords
vt 0.279297 0.5
vt 0.537109 0.5
vt 0.560547 0.5
vt 0.958984 0.5

# verts
v -1 1.9 -0.8
v -1 1.9 -1.1
v -1 2 -0.8
v -1 2 -1.1
v -0.9 1.9 -0.5
v -0.9 1.9 -0.8
v -0.9 2 -0.5
v -0.9 2 -0.8
v -0.8 1.9 -0.3
v -0.8 1.9 -0.5
v -0.8 2 -0.3
v -0.8 2 -0.5
v -0.7 1.9 -0.1
v -0.7 1.9 -0.3
v -0.7 2 -0.1
v -0.7 2 -0.3
v -0.6 1.9 0.1
v -0.6 1.9 -0.1
v -0.6 2 0.1
v -0.6 2 -0.1
v -0.5 1.9 0.3
v -0.5 1.9 0.1
v -0.5 2 0.3
v -0.5 2 0.1
v -0.4 1.9 0.5
v -0.4 1.9 0.3
v -0.4 2 0.5
v -0.4 2 0.3
v -0.3 1.9 0.7
v -0.3 1.9 0.5
v -0.3 2 0.7
v -0.3 2 0.5
v -0.2 1.9 0.9
v -0.2 1.9 0.7
v -0.2 2 0.9
v -0.2 2 0.7
v -0.1 1.9 1
v -0.1 1.9 0.9
v -0.1 2 1
v -0.1 2 0.9
v 0.1 1.9 1
v 0.1 1.9 0.9
v 0.1 2 1
v 0.1 2 0.9
v 0.2 1.9 0.9
v 0.2 1.9 0.7
v 0.2 2 0.9
v 0.2 2 0.7
v 0.3 1.9 0.7
v 0.3 1.9 0.5
v 0.3 2 0.7
v 0.3 2 0.5
v 0.4 1.9 0.5
v 0.4 1.9 0.3
v 0.4 2 0.5
v 0.4 2 0.3
v 0.5 1.9 0.3
v 0.5 1.9 0.1
v 0.5 2 0.3
v 0.5 2 0.1
v 0.6 1.9 0.1
v 0.6 1.9 -0.1
v 0.6 2 0.1
v 0.6 2 -0.1
v 0.7 1.9 -0.1
v 0.7 1.9 -0.3
v 0.7 2 -0.1
v 0.7 2 -0.3
v 0.8 1.9 -0.3
v 0.8 1.9 -0.5
v 0.8 2 -0.3
v 0.8 2 -0.5
v 0.9 1.9 -0.5
v 0.9 1.9 -0.8
v 0.9 2 -0.5
v 0.9 2 -0.8
v 1 1.9 -0.8
v 1 1.9 -1.1
v 1 2 -0.8
v 1 2 -1.1
v -0.1 1.9 1
v -0.1 2 1
v 0.1 1.9 1
v 0.1 2 1
v -0.2 1.9 0.9
v -0.2 2 0.9
v -0.1 1.9 0.9
v -0.1 2 0.9
v 0.1 1.9 0.9
v 0.1 2 0.9
v 0.2 1.9 0.9
v 0.2 2 0.9
v -0.3 1.9 0.7
v -0.3 2 0.7
v -0.2 1.9 0.7
v -0.2 2 0.7
v 0.2 1.9 0.7
v 0.2 2 0.7
v 0.3 1.9 0.7
v 0.3 2 0.7
v -0.4 1.9 0.5
v -0.4 2 0.5
v -0.3 1.9 0.5
v -0.3 2 0.5
v 0.3 1.9 0.5
v 0.3 2 0.5
v 0.4 1.9 0.5
v 0.4 2 0.5
v -0.5 1.9 0.3
v -0.5 2 0.3
v -0.4 1.9 0.3
v -0.4 2 0.3
v 0.4 1.9 0.3
v 0.4 2 0.3
v 0.5 1.9 0.3
v 0.5 2 0.3
v -0.6 1.9 0.1
v -0.6 2 0.1
v -0.5 1.9 0.1
v -0.5 2 0.1
v 0.5 1.9 0.1
v 0.5 2 0.1
v 0.6 1.9 0.1
v 0.6 2 0.1
v -0.7 1.9 -0.1
v -0.7 2 -0.1
v -0.6 1.9 -0.1
v -0.6 2 -0.1
v 0.6 1.9 -0.1
v 0.6 2 -0.1
v 0.7 1.9 -0.1
v 0.7 2 -0.1
v -0.8 1.9 -0.3
v -0.8 2 -0.3
v -0.7 1.9 -0.3
v -0.7 2 -0.3
v 0.7 1.9 -0.3
v 0.7 2 -0.3
v 0.8 1.9 -0.3
v 0.8 2 -0.3
v -0.9 1.9 -0.5
v -0.9 2 -0.5
v -0.8 1.9 -0.5
v -0.8 2 -0.5
v 0.8 1.9 -0.5
v 0.8 2 -0.5
v 0.9 1.9 -0.5
v 0.9 2 -0.5
v -1 1.9 -0.8
v -1 2 -0.8
v -0.9 1.9 -0.8
v -0.9 2 -0.8
v 0.9 1.9 -0.8
v 0.9 2 -0.8
v 1 1.9 -0.8
v 1 2 -0.8
v -1 1.9 -1.1
v -1 2 -1.1
v 1 1.9 -1.1
v 1 2 -1.1
v -0.1 1.9 1
v 0.1 1.9 1
v -0.2 1.9 0.9
v -0.1 1.9 0.9
v 0.1 1.9 0.9
v 0.2 1.9 0.9
v -0.3 1.9 0.7
v -0.2 1.9 0.7
v 0.2 1.9 0.7
v 0.3 1.9 0.7
v -0.2 1.9 0.6
v -0.1 1.9 0.6
v 0.1 1.9 0.6
v 0.2 1.9 0.6
v -0.4 1.9 0.5
v -0.3 1.9 0.5
v 0.3 1.9 0.5
v 0.4 1.9 0.5
v -0.3 1.9 0.4
v -0.2 1.9 0.4
v 0.2 1.9 0.4
v 0.3 1.9 0.4
v -0.5 1.9 0.3
v -0.4 1.9 0.3
v 0.4 1.9 0.3
v 0.5 1.9 0.3
v -0.4 1.9 0.2
v -0.3 1.9 0.2
v 0.3 1.9 0.2
v 0.4 1.9 0.2
v -0.6 1.9 0.1
v -0.5 1.9 0.1
v 0.5 1.9 0.1
v 0.6 1.9 0.1
v -0.5 1.9 0
v -0.4 1.9 0
v 0.4 1.9 0
v 0.5 1.9 0
v -0.7 1.9 -0.1
v -0.6 1.9 -0.1
v 0.6 1.9 -0.1
v 0.7 1.9 -0.1
v -0.6 1.9 -0.2
v -0.5 1.9 -0.2
v 0.5 1.9 -0.2
v 0.6 1.9 -0.2
v -0.8 1.9 -0.3
v -0.7 1.9 -0.3
v 0.7 1.9 -0.3
v 0.8 1.9 -0.3
v -0.7 1.9 -0.4
v -0.6 1.9 -0.4
v 0.6 1.9 -0.4
v 0.7 1.9 -0.4
v -0.9 1.9 -0.5
v -0.8 1.9 -0.5
v 0.8 1.9 -0.5
v 0.9 1.9 -0.5
v -0.8 1.9 -0.6
v -0.7 1.9 -0.6
v 0.7 1.9 -0.6
v 0.8 1.9 -0.6
v -1 1.9 -0.8
v -0.9 1.9 -0.8
v -0.8 1.9 -0.8
v 0.8 1.9 -0.8
v 0.9 1.9 -0.8
v 1 1.9 -0.8
v -0.9 1.9 -1
v -0.6 1.9 -1
v -0.4 1.9 -1
v -0.1 1.9 -1
v 0.1 1.9 -1
v 0.4 1.9 -1
v 0.6 1.9 -1
v 0.9 1.9 -1
v -1 1.9 -1.1
v 1 1.9 -1.1
v -0.1 2 1
v 0.1 2 1
v -0.2 2 0.9
v -0.1 2 0.9
v 0.1 2 0.9
v 0.2 2 0.9
v -0.3 2 0.7
v -0.2 2 0.7
v 0.2 2 0.7
v 0.3 2 0.7
v -0.2 2 0.6
v -0.1 2 0.6
v 0.1 2 0.6
v 0.2 2 0.6
v -0.4 2 0.5
v -0.3 2 0.5
v 0.3 2 0.5
v 0.4 2 0.5
v -0.3 2 0.4
v -0.2 2 0.4
v 0.2 2 0.4
v 0.3 2 0.4
v -0.5 2 0.3
v -0.4 2 0.3
v 0.4 2 0.3
v 0.5 2 0.3
v -0.4 2 0.2
v -0.3 2 0.2
v 0.3 2 0.2
v 0.4 2 0.2
v -0.6 2 0.1
v -0.5 2 0.1
v 0.5 2 0.1
v 0.6 2 0.1
v -0.5 2 0
v -0.4 2 0
v 0.4 2 0
v 0.5 2 0
v -0.7 2 -0.1
v -0.6 2 -0.1
v 0.6 2 -0.1
v 0.7 2 -0.1
v -0.6 2 -0.2
v -0.5 2 -0.2
v 0.5 2 -0.2
v 0.6 2 -0.2
v -0.8 2 -0.3
v -0.7 2 -0.3
v 0.7 2 -0.3
v 0.8 2 -0.3
v -0.7 2 -0.4
v -0.6 2 -0.4
v 0.6 2 -0.4
v 0.7 2 -0.4
v -0.9 2 -0.5
v -0.8 2 -0.5
v 0.8 2 -0.5
v 0.9 2 -0.5
v -0.8 2 -0.6
v -0.7 2 -0.6
v 0.7 2 -0.6
v 0.8 2 -0.6
v -1 2 -0.8
v -0.9 2 -0.8
v -0.8 2 -0.8
v 0.8 2 -0.8
v 0.9 2 -0.8
v 1 2 -0.8
v -0.9 2 -1
v -0.6 2 -1
v -0.4 2 -1
v -0.1 2 -1
v 0.1 2 -1
v 0.4 2 -1
v 0.6 2 -1
v 0.9 2 -1
v -1 2 -1.1
v 1 2 -1.1

# faces
f 3/2/1 2/2/1 1/2/1
f 4/2/1 2/2/1 3/2/1
f 7/2/1 6/2/1 5/2/1
f 8/2/1 6/2/1 7/2/1
f 11/2/1 10/2/1 9/2/1
f 12/2/1 10/2/1 11/2/1
f 15/2/1 14/2/1 13/2/1
f 16/2/1 14/2/1 15/2/1
f 19/2/1 18/2/1 17/2/1
f 20/2/1 18/2/1 19/2/1
f 23/2/1 22/2/1 21/2/1
f 24/2/1 22/2/1 23/2/1
f 27/2/1 26/2/1 25/2/1
f 28/2/1 26/2/1 27/2/1
f 31/2/1 30/2/1 29/2/1
f 32/2/1 30/2/1 31/2/1
f 35/2/1 34/2/1 33/2/1
f 36/2/1 34/2/1 35/2/1
f 39/3/1 38/3/1 37/3/1
f 40/3/1 38/3/1 39/3/1
f 41/3/2 42/3/2 43/3/2
f 43/3/2 42/3/2 44/3/2
f 45/2/2 46/2/2 47/2/2
f 47/2/2 46/2/2 48/2/2
f 49/2/2 50/2/2 51/2/2
f 51/2/2 50/2/2 52/2/2
f 53/2/2 54/2/2 55/2/2
f 55/2/2 54/2/2 56/2/2
f 57/2/2 58/2/2 59/2/2
f 59/2/2 58/2/2 60/2/2
f 61/2/2 62/2/2 63/2/2
f 63/2/2 62/2/2 64/2/2
f 65/2/2 66/2/2 67/2/2
f 67/2/2 66/2/2 68/2/2
f 69/2/2 70/2/2 71/2/2
f 71/2/2 70/2/2 72/2/2
f 73/2/2 74/2/2 75/2/2
f 75/2/2 74/2/2 76/2/2
f 77/2/2 78/2/2 79/2/2
f 79/2/2 78/2/2 80/2/2
f 83/3/3 82/3/3 81/3/3
f 84/3/3 82/3/3 83/3/3
f 87/2/3 86/2/3 85/2/3
f 88/2/3 86/2/3 87/2/3
f 91/2/3 90/2/3 89/2/3
f 92/2/3 90/2/3 91/2/3
f 95/2/3 94/2/3 93/2/3
f 96/2/3 94/2/3 95/2/3
f 99/2/3 98/2/3 97/2/3
f 100/2/3 98/2/3 99/2/3
f 103/2/3 102/2/3 101/2/3
f 104/2/3 102/2/3 103/2/3
f 107/2/3 106/2/3 105/2/3
f 108/2/3 106/2/3 107/2/3
f 111/2/3 110/2/3 109/2/3
f 112/2/3 110/2/3 111/2/3
f 115/2/3 114/2/3 113/2/3
f 116/2/3 114/2/3 115/2/3
f 119/2/3 118/2/3 117/2/3
f 120/2/3 118/2/3 119/2/3
f 123/2/3 122/2/3 121/2/3
f 124/2/3 122/2/3 123/2/3
f 127/2/3 126/2/3 125/2/3
f 128/2/3 126/2/3 127/2/3
f 131/2/3 130/2/3 129/2/3
f 132/2/3 130/2/3 131/2/3
f 135/2/3 134/2/3 133/2/3
f 136/2/3 134/2/3 135/2/3
f 139/2/3 138/2/3 137/2/3
f 140/2/3 138/2/3 139/2/3
f 143/2/3 142/2/3 141/2/3
f 144/2/3 142/2/3 143/2/3
f 147/2/3 146/2/3 145/2/3
f 148/2/3 146/2/3 147/2/3
f 151/2/3 150/2/3 149/2/3
f 152/2/3 150/2/3 151/2/3
f 155/2/3 154/2/3 153/2/3
f 156/2/3 154/2/3 155/2/3
f 157/2/4 158/2/4 159/2/4
f 159/2/4 158/2/4 160/2/4
f 164/3/5 162/3/5 161/3/5
f 165/3/5 162/3/5 164/3/5
f 168/2/5 164/2/5 163/2/5
f 169/2/5 166/2/5 165/2/5
f 171/2/5 168/2/5 167/2/5
f 171/2/5 164/2/5 168/2/5
f 172/1/5 165/1/5 164/1/5
f 172/2/5 164/2/5 171/2/5
f 173/2/5 170/2/5 169/2/5
f 173/1/5 165/1/5 172/1/5
f 173/2/5 169/2/5 165/2/5
f 174/2/5 170/2/5 173/2/5
f 176/2/5 171/2/5 167/2/5
f 177/2/5 170/2/5 174/2/5
f 179/2/5 176/2/5 175/2/5
f 179/2/5 171/2/5 176/2/5
f 180/4/5 172/4/5 171/4/5
f 180/2/5 171/2/5 179/2/5
f 181/2/5 178/2/5 177/2/5
f 181/4/5 174/4/5 173/4/5
f 181/2/5 177/2/5 174/2/5
f 182/2/5 178/2/5 181/2/5
f 184/2/5 179/2/5 175/2/5
f 185/2/5 178/2/5 182/2/5
f 187/2/5 184/2/5 183/2/5
f 187/2/5 179/2/5 184/2/5
f 188/4/5 180/4/5 179/4/5
f 188/2/5 179/2/5 187/2/5
f 189/2/5 186/2/5 185/2/5
f 189/4/5 182/4/5 181/4/5
f 189/2/5 185/2/5 182/2/5
f 190/2/5 186/2/5 189/2/5
f 192/2/5 187/2/5 183/2/5
f 193/2/5 186/2/5 190/2/5
f 195/2/5 192/2/5 191/2/5
f 195/2/5 187/2/5 192/2/5
f 196/4/5 188/4/5 187/4/5
f 196/2/5 187/2/5 195/2/5
f 197/2/5 194/2/5 193/2/5
f 197/4/5 190/4/5 189/4/5
f 197/2/5 193/2/5 190/2/5
f 198/2/5 194/2/5 197/2/5
f 200/2/5 195/2/5 191/2/5
f 201/2/5 194/2/5 198/2/5
f 203/2/5 200/2/5 199/2/5
f 203/2/5 195/2/5 200/2/5
f 204/1/5 196/1/5 195/1/5
f 204/2/5 195/2/5 203/2/5
f 205/2/5 202/2/5 201/2/5
f 205/1/5 198/1/5 197/1/5
f 205/2/5 201/2/5 198/2/5
f 206/2/5 202/2/5 205/2/5
f 208/2/5 203/2/5 199/2/5
f 209/2/5 202/2/5 206/2/5
f 211/2/5 208/2/5 207/2/5
f 211/2/5 203/2/5 208/2/5
f 212/1/5 204/1/5 203/1/5
f 212/2/5 203/2/5 211/2/5
f 213/2/5 210/2/5 209/2/5
f 213/1/5 206/1/5 205/1/5
f 213/2/5 209/2/5 206/2/5
f 214/2/5 210/2/5 213/2/5
f 216/2/5 211/2/5 207/2/5
f 217/2/5 210/2/5 214/2/5
f 219/2/5 216/2/5 215/2/5
f 219/2/5 211/2/5 216/2/5
f 220/4/5 212/4/5 211/4/5
f 220/2/5 211/2/5 219/2/5
f 221/2/5 218/2/5 217/2/5
f 221/4/5 214/4/5 213/4/5
f 221/2/5 217/2/5 214/2/5
f 222/2/5 218/2/5 221/2/5
f 224/2/5 219/2/5 215/2/5
f 225/4/5 220/4/5 219/4/5
f 225/2/5 219/2/5 224/2/5
f 226/2/5 218/2/5 222/2/5
f 226/4/5 222/4/5 221/4/5
f 227/2/5 218/2/5 226/2/5
f 229/2/5 224/2/5 223/2/5
f 229/4/5 225/4/5 224/4/5
f 230/1/5 204/1/5 212/1/5
f 230/4/5 225/4/5 229/4/5
f 230/4/5 212/4/5 220/4/5
f 230/4/5 220/4/5 225/4/5
f 231/4/5 188/4/5 196/4/5
f 231/1/5 204/1/5 230/1/5
f 231/1/5 196/1/5 204/1/5
f 232/4/5 180/4/5 188/4/5
f 232/4/5 188/4/5 231/4/5
f 232/4/5 172/4/5 180/4/5
f 232/1/5 173/1/5 172/1/5
f 233/4/5 181/4/5 173/4/5
f 233/1/5 173/1/5 232/1/5
f 233/4/5 189/4/5 181/4/5
f 233/4/5 197/4/5 189/4/5
f 234/1/5 213/1/5 205/1/5
f 234/4/5 197/4/5 233/4/5
f 234/1/5 205/1/5 197/1/5
f 235/4/5 221/4/5 213/4/5
f 235/1/5 213/1/5 234/1/5
f 235/4/5 227/4/5 226/4/5
f 235/4/5 226/4/5 221/4/5
f 236/2/5 228/2/5 227/2/5
f 236/4/5 227/4/5 235/4/5
f 237/2/5 231/2/5 230/2/5
f 237/2/5 234/2/5 233/2/5
f 237/2/5 236/2/5 235/2/5
f 237/2/5 230/2/5 229/2/5
f 237/2/5 232/2/5 231/2/5
f 237/2/5 233/2/5 232/2/5
f 237/2/5 235/2/5 234/2/5
f 237/2/5 229/2/5 223/2/5
f 238/2/5 228/2/5 236/2/5
f 238/2/5 236/2/5 237/2/5
f 239/3/6 240/3/6 242/3/6
f 242/3/6 240/3/6 243/3/6
f 241/2/6 242/2/6 246/2/6
f 243/2/6 244/2/6 247/2/6
f 245/2/6 246/2/6 249/2/6
f 246/2/6 242/2/6 249/2/6
f 242/1/6 243/1/6 250/1/6
f 249/2/6 242/2/6 250/2/6
f 247/2/6 248/2/6 251/2/6
f 250/1/6 243/1/6 251/1/6
f 243/2/6 247/2/6 251/2/6
f 251/2/6 248/2/6 252/2/6
f 245/2/6 249/2/6 254/2/6
f 252/2/6 248/2/6 255/2/6
f 253/2/6 254/2/6 257/2/6
f 254/2/6 249/2/6 257/2/6
f 249/4/6 250/4/6 258/4/6
f 257/2/6 249/2/6 258/2/6
f 255/2/6 256/2/6 259/2/6
f 251/4/6 252/4/6 259/4/6
f 252/2/6 255/2/6 259/2/6
f 259/2/6 256/2/6 260/2/6
f 253/2/6 257/2/6 262/2/6
f 260/2/6 256/2/6 263/2/6
f 261/2/6 262/2/6 265/2/6
f 262/2/6 257/2/6 265/2/6
f 257/4/6 258/4/6 266/4/6
f 265/2/6 257/2/6 266/2/6
f 263/2/6 264/2/6 267/2/6
f 259/4/6 260/4/6 267/4/6
f 260/2/6 263/2/6 267/2/6
f 267/2/6 264/2/6 268/2/6
f 261/2/6 265/2/6 270/2/6
f 268/2/6 264/2/6 271/2/6
f 269/2/6 270/2/6 273/2/6
f 270/2/6 265/2/6 273/2/6
f 265/4/6 266/4/6 274/4/6
f 273/2/6 265/2/6 274/2/6
f 271/2/6 272/2/6 275/2/6
f 267/4/6 268/4/6 275/4/6
f 268/2/6 271/2/6 275/2/6
f 275/2/6 272/2/6 276/2/6
f 269/2/6 273/2/6 278/2/6
f 276/2/6 272/2/6 279/2/6
f 277/2/6 278/2/6 281/2/6
f 278/2/6 273/2/6 281/2/6
f 273/1/6 274/1/6 282/1/6
f 281/2/6 273/2/6 282/2/6
f 279/2/6 280/2/6 283/2/6
f 275/1/6 276/1/6 283/1/6
f 276/2/6 279/2/6 283/2/6
f 283/2/6 280/2/6 284/2/6
f 277/2/6 281/2/6 286/2/6
f 284/2/6 280/2/6 287/2/6
f 285/2/6 286/2/6 289/2/6
f 286/2/6 281/2/6 289/2/6
f 281/1/6 282/1/6 290/1/6
f 289/2/6 281/2/6 290/2/6
f 287/2/6 288/2/6 291/2/6
f 283/1/6 284/1/6 291/1/6
f 284/2/6 287/2/6 291/2/6
f 291/2/6 288/2/6 292/2/6
f 285/2/6 289/2/6 294/2/6
f 292/2/6 288/2/6 295/2/6
f 293/2/6 294/2/6 297/2/6
f 294/2/6 289/2/6 297/2/6
f 289/4/6 290/4/6 298/4/6
f 297/2/6 289/2/6 298/2/6
f 295/2/6 296/2/6 299/2/6
f 291/4/6 292/4/6 299/4/6
f 292/2/6 295/2/6 299/2/6
f 299/2/6 296/2/6 300/2/6
f 293/2/6 297/2/6 302/2/6
f 297/4/6 298/4/6 303/4/6
f 302/2/6 297/2/6 303/2/6
f 300/2/6 296/2/6 304/2/6
f 299/4/6 300/4/6 304/4/6
f 304/2/6 296/2/6 305/2/6
f 301/2/6 302/2/6 307/2/6
f 302/4/6 303/4/6 307/4/6
f 290/1/6 282/1/6 308/1/6
f 307/4/6 303/4/6 308/4/6
f 298/4/6 290/4/6 308/4/6
f 303/4/6 298/4/6 308/4/6
f 274/4/6 266/4/6 309/4/6
f 308/1/6 282/1/6 309/1/6
f 282/1/6 274/1/6 309/1/6
f 266/4/6 258/4/6 310/4/6
f 309/4/6 266/4/6 310/4/6
f 258/4/6 250/4/6 310/4/6
f 250/1/6 251/1/6 310/1/6
f 251/4/6 259/4/6 311/4/6
f 310/1/6 251/1/6 311/1/6
f 259/4/6 267/4/6 311/4/6
f 267/4/6 275/4/6 311/4/6
f 283/1/6 291/1/6 312/1/6
f 311/4/6 275/4/6 312/4/6
f 275/1/6 283/1/6 312/1/6
f 291/4/6 299/4/6 313/4/6
f 312/1/6 291/1/6 313/1/6
f 304/4/6 305/4/6 313/4/6
f 299/4/6 304/4/6 313/4/6
f 305/2/6 306/2/6 314/2/6
f 313/4/6 305/4/6 314/4/6
f 308/2/6 309/2/6 315/2/6
f 311/2/6 312/2/6 315/2/6
f 313/2/6 314/2/6 315/2/6
f 307/2/6 308/2/6 315/2/6
f 309/2/6 310/2/6 315/2/6
f 310/2/6 311/2/6 315/2/6
f 312/2/6 313/2/6 315/2/6
f 301/2/6 307/2/6 315/2/6
f 314/2/6 306/2/6 316/2/6
f 315/2/6 314/2/6 316/2/6
